<?xml version="1.0" standalone="no"?><!DOCTYPE svg PUBLIC "-//W3C//DTD SVG 1.1//EN" "http://www.w3.org/Graphics/SVG/1.1/DTD/svg11.dtd"><svg t="1636689666490" class="icon" viewBox="0 0 1024 1024" version="1.1" xmlns="http://www.w3.org/2000/svg" p-id="4270" xmlns:xlink="http://www.w3.org/1999/xlink" width="200" height="200"><defs><style type="text/css"></style></defs><path d="M520.73 509.5c-5.65 0-11.31-1.1-16.69-3.31L99.12 340.21a35.995 35.995 0 1 1 0.15-66.68l404.95-163.87c10.64-4.31 22.37-4.31 33.01 0l404.95 163.87c13.57 5.49 22.46 18.65 22.5 33.29s-8.8 27.84-22.35 33.39L537.42 506.2c-5.38 2.2-11.04 3.3-16.69 3.3zM208.22 307.12l312.51 128.1 312.51-128.1-312.51-126.47-312.51 126.47z" fill="#1296db" p-id="4271"></path><path d="M520.73 696.52c-5.65 0-11.3-1.1-16.67-3.31L99.12 527.26c-18.4-7.54-27.2-28.57-19.66-46.96 7.54-18.4 28.57-27.2 46.96-19.66l394.3 161.59 394.3-161.59c18.39-7.54 39.42 1.26 46.96 19.66 7.54 18.4-1.26 39.42-19.66 46.96L537.39 693.21c-5.37 2.2-11.02 3.31-16.66 3.31z" fill="#1296db" p-id="4272"></path><path d="M520.73 883.03c-5.65 0-11.3-1.1-16.67-3.31L99.12 713.77c-18.4-7.54-27.2-28.57-19.66-46.96 7.54-18.4 28.56-27.2 46.96-19.66l394.3 161.59 394.3-161.59c18.4-7.54 39.42 1.26 46.96 19.66 7.54 18.4-1.26 39.42-19.66 46.96L537.39 879.72a43.73 43.73 0 0 1-16.66 3.31z" fill="#1296db" p-id="4273"></path></svg>