<?xml version="1.0" standalone="no"?><!DOCTYPE svg PUBLIC "-//W3C//DTD SVG 1.1//EN" "http://www.w3.org/Graphics/SVG/1.1/DTD/svg11.dtd"><svg t="1636688171859" class="icon" viewBox="0 0 1024 1024" version="1.1" xmlns="http://www.w3.org/2000/svg" p-id="14711" xmlns:xlink="http://www.w3.org/1999/xlink" width="200" height="200"><defs><style type="text/css"></style></defs><path d="M556 478.4m-450 0a450 450 0 1 0 900 0 450 450 0 1 0-900 0Z" fill="#1296db" opacity=".6" p-id="14712"></path><path d="M556 324V221.1L427.4 349.8 556 478.4V375.5c85.3 0 154.3 69.1 154.3 154.3 0 85.3-69.1 154.3-154.3 154.3-85.3 0-154.3-69.1-154.3-154.3h-51.4c0 113.7 92.1 205.8 205.8 205.8 113.7 0 205.8-92.1 205.8-205.8C761.8 416.1 669.7 324 556 324z m0 0" fill="#1296db" p-id="14713"></path></svg>