<?xml version="1.0" standalone="no"?><!DOCTYPE svg PUBLIC "-//W3C//DTD SVG 1.1//EN" "http://www.w3.org/Graphics/SVG/1.1/DTD/svg11.dtd"><svg t="1636689825641" class="icon" viewBox="0 0 1024 1024" version="1.1" xmlns="http://www.w3.org/2000/svg" p-id="7020" xmlns:xlink="http://www.w3.org/1999/xlink" width="200" height="200"><defs><style type="text/css"></style></defs><path d="M704 97.568l0.064-0.064L893.6 288H896v640H128V96h576v1.568z m0 45.248V288h144.48L704 142.816zM672 128H160v768h704V320h-192V128z m-295.456 619.456A31.872 31.872 0 0 1 384 768v32a32 32 0 0 1-32 32h-32a32 32 0 0 1-32-32v-32a32 32 0 0 1 32-32h26.656c31.232-83.36 60.896-140.16 89.664-170.912 47.36-50.72 111.552-88.064 171.68-98.272V448h-224a32 32 0 0 1-32 32h-32a32 32 0 0 1-32-32v-32a32 32 0 0 1 32-32h32a32 32 0 0 1 32 32h224a32 32 0 0 1 32-32h64a32 32 0 0 1 32 32v64a32 32 0 0 1-32 32v224a32 32 0 0 1 32 32v32a32 32 0 0 1-32 32h-32a32 32 0 0 1-32-32v-32a32 32 0 0 1 32-32v-224h-32c-10.88 0-20.48-5.44-26.24-13.728-52.704 8.864-111.04 42.656-154.08 88.64-25.28 27.072-53.248 80.768-83.136 160.544zM704 480v-64h-64v64h64z m-384-64v32h32v-32h-32z m352 352v32h32v-32h-32z m-352 0v32h32v-32h-32z" p-id="7021" fill="#1296db"></path></svg>