<?xml version="1.0" standalone="no"?><!DOCTYPE svg PUBLIC "-//W3C//DTD SVG 1.1//EN" "http://www.w3.org/Graphics/SVG/1.1/DTD/svg11.dtd"><svg t="1636871538404" class="icon" viewBox="0 0 1024 1024" version="1.1" xmlns="http://www.w3.org/2000/svg" p-id="16043" xmlns:xlink="http://www.w3.org/1999/xlink" width="200" height="200"><defs><style type="text/css"></style></defs><path d="M613.6 960H97.2c-17.7 0-32-14.3-32-32V98.5c0-17.7 14.3-32 32-32h829.5c17.7 0 32 14.3 32 32v518.2c0 17.7-14.3 32-32 32s-32-14.3-32-32V130.5H129.2V896h484.4c17.7 0 32 14.3 32 32s-14.3 32-32 32z" fill="#1296db" p-id="16044"></path><path d="M711.3 694.9l120.3 46.9-100.7 80.7z" fill="#1296db" p-id="16045"></path><path d="M707.6 882.1L671.3 645l223.6 87.1-187.3 150z m43.7-137.3l2.8 18 14.2-11.4-17-6.6z" fill="#1296db" p-id="16046"></path><path d="M927 957.9c-8.2 0-16.4-3.1-22.6-9.4L723.2 767.2c-12.5-12.5-12.5-32.8 0-45.3s32.8-12.5 45.3 0l181.2 181.2c12.5 12.5 12.5 32.8 0 45.3-6.3 6.3-14.5 9.5-22.7 9.5z" fill="#1296db" p-id="16047"></path></svg>