<?xml version="1.0" standalone="no"?><!DOCTYPE svg PUBLIC "-//W3C//DTD SVG 1.1//EN" "http://www.w3.org/Graphics/SVG/1.1/DTD/svg11.dtd"><svg t="1636689240360" class="icon" viewBox="0 0 1024 1024" version="1.1" xmlns="http://www.w3.org/2000/svg" p-id="2471" xmlns:xlink="http://www.w3.org/1999/xlink" width="200" height="200"><defs><style type="text/css"></style></defs><path d="M810.666667 170.666667a42.666667 42.666667 0 0 1 42.666666 42.666666v597.333334a42.666667 42.666667 0 0 1-42.666666 42.666666H213.333333a42.666667 42.666667 0 0 1-42.666666-42.666666V213.333333a42.666667 42.666667 0 0 1 42.666666-42.666666h597.333334z" fill="#005DFC" p-id="2472"></path><path d="M303.530667 452.864a21.333333 21.333333 0 0 1 0-42.666667h76.501333l-109.226667-109.226666a21.333333 21.333333 0 0 1 30.165334-30.208l109.226666 109.269333V303.530667a21.333333 21.333333 0 0 1 42.666667 0v128a21.333333 21.333333 0 0 1-21.333333 21.333333h-128zM723.029333 753.237333l-109.184-109.226666-0.042666 76.458666a21.333333 21.333333 0 1 1-42.666667 0v-128a21.333333 21.333333 0 0 1 21.333333-21.333333h128a21.333333 21.333333 0 0 1 0 42.666667h-76.501333l109.226667 109.226666a21.333333 21.333333 0 0 1-30.165334 30.208z" fill="#FFFFFF" p-id="2473"></path></svg>